<?xml version="1.0" standalone="no"?>
<!DOCTYPE svg PUBLIC "-//W3C//DTD SVG 20010904//EN"
 "http://www.w3.org/TR/2001/REC-SVG-20010904/DTD/svg10.dtd">
<svg version="1.0" xmlns="http://www.w3.org/2000/svg"
 width="480.000000pt" height="480.000000pt" viewBox="0 0 480.000000 480.000000"
 preserveAspectRatio="xMidYMid meet">
<metadata>
Created by potrace 1.11, written by Peter Selinger 2001-2013
</metadata>
<g transform="translate(0.000000,480.000000) scale(0.100000,-0.100000)"
fill="#000000" stroke="none">
<path d="M2187 4679 c-9 -6 -27 -7 -40 -4 -18 5 -19 4 -7 -5 13 -10 11 -11 -6
-7 -15 3 -38 -8 -70 -34 -55 -44 -118 -84 -109 -69 3 5 0 10 -8 10 -19 0 -70
-56 -62 -69 3 -6 -4 -15 -17 -20 -26 -10 -125 -114 -139 -146 -9 -19 -9 -19
-5 2 2 13 0 26 -5 29 -5 3 -9 -2 -9 -10 0 -19 -16 -21 -23 -3 -3 6 -6 2 -6
-10 -1 -12 -6 -25 -11 -28 -6 -4 -8 -10 -5 -15 3 -5 -2 -15 -11 -24 -8 -9 -13
-24 -10 -33 8 -25 -9 -51 -18 -28 -9 24 -28 7 -26 -23 5 -72 1 -83 -25 -76
-19 5 -25 2 -25 -10 0 -9 -5 -16 -11 -16 -5 0 -7 -5 -3 -11 4 -8 -1 -9 -16 -4
-22 7 -22 6 -6 -16 22 -32 20 -49 -6 -49 -19 0 -20 -2 -8 -10 12 -7 8 -12 -18
-21 -22 -8 -30 -14 -22 -19 15 -9 4 -30 -15 -30 -22 0 -27 -17 -9 -34 14 -15
13 -17 -10 -26 -28 -10 -31 -44 -5 -61 12 -7 11 -9 -2 -9 -16 0 -29 -18 -35
-49 -5 -23 7 -40 24 -34 16 6 16 5 0 -13 -21 -25 -41 -96 -28 -104 5 -3 9 -33
8 -65 -1 -88 4 -148 15 -162 5 -7 6 -24 3 -37 -3 -14 -2 -27 3 -30 5 -3 12
-27 16 -53 4 -26 14 -61 22 -76 8 -16 12 -35 9 -43 -3 -7 -1 -16 3 -18 16 -10
19 -62 7 -121 -13 -61 -3 -146 15 -128 10 10 28 172 35 308 2 55 12 156 21
225 17 126 30 160 90 229 40 47 60 80 72 121 7 25 18 51 23 57 6 7 8 19 5 26
-3 8 3 27 14 43 10 16 19 25 19 19 0 -5 11 3 25 18 14 15 31 27 37 27 6 0 19
6 27 14 28 24 121 49 160 42 22 -3 31 -2 22 3 -19 12 15 22 66 20 21 -1 63 5
93 14 89 25 380 -1 417 -38 7 -8 30 -17 51 -20 20 -3 45 -10 54 -16 10 -5 24
-9 32 -9 8 0 19 -6 23 -12 11 -18 70 -58 85 -58 25 -1 62 -50 120 -160 10 -19
23 -42 28 -50 5 -8 25 -48 45 -89 l36 -74 2 -186 c1 -102 0 -235 -2 -296 -5
-143 -3 -178 9 -170 6 3 10 44 10 91 0 61 4 92 16 109 9 14 13 25 9 25 -5 0 1
8 13 18 12 11 31 55 47 113 15 51 31 102 36 111 5 10 6 25 2 34 -4 12 -3 15 5
10 12 -7 13 -5 16 71 0 24 5 43 9 43 5 0 5 5 2 10 -4 6 -3 16 2 23 5 7 10 35
11 62 2 28 7 54 11 58 5 5 5 25 0 45 -5 20 -6 58 -3 83 5 36 1 55 -17 90 -23
46 -34 93 -18 83 5 -3 9 2 9 10 0 8 -4 17 -9 20 -10 6 -12 56 -2 56 3 0 12 4
20 9 10 7 11 13 1 31 -7 13 -13 42 -14 65 -1 32 -10 52 -40 88 -36 44 -56 62
-40 35 5 -7 3 -8 -5 -4 -7 5 -10 15 -7 23 4 8 -5 24 -20 36 -72 61 -153 140
-151 150 1 6 -7 13 -17 15 -22 5 -39 20 -48 42 -5 13 -57 34 -138 56 -14 4
-34 13 -45 20 -18 13 -18 14 10 15 56 1 -5 18 -69 18 -33 1 -56 4 -52 8 16 17
-82 33 -169 27 l-90 -5 24 20 c13 12 19 21 15 21 -5 -1 -47 -7 -94 -14 -69
-10 -87 -10 -95 0 -7 10 -15 10 -28 3z"/>
<path d="M1991 4614 c-17 -14 -31 -30 -31 -35 0 -6 10 -1 22 11 12 11 25 20
29 20 4 0 9 7 13 15 8 21 2 19 -33 -11z"/>
<path d="M1782 3428 c-7 -7 -16 -13 -20 -14 -18 -2 -49 -19 -69 -37 -23 -21
-32 -44 -12 -31 7 4 10 -4 7 -22 -2 -22 3 -31 22 -41 30 -15 74 -18 51 -4 -10
7 0 11 35 15 27 4 63 10 79 15 17 4 41 4 55 0 71 -20 170 -32 183 -21 10 8 17
8 24 1 8 -8 17 -8 32 0 26 15 28 35 1 28 -10 -3 -22 0 -25 7 -3 7 -7 7 -11 -3
-5 -9 -11 -4 -20 18 -8 19 -19 31 -26 28 -7 -2 -28 2 -47 9 -18 8 -49 14 -67
14 -19 0 -34 3 -34 8 0 25 -137 52 -158 30z"/>
<path d="M2780 3381 c-8 -5 -44 -12 -80 -15 -110 -12 -150 -26 -161 -54 -7
-19 -13 -22 -21 -14 -7 7 -20 12 -30 12 -13 0 -17 -7 -15 -28 2 -26 4 -27 57
-25 163 6 240 3 267 -10 16 -8 48 -12 73 -11 31 3 40 1 30 -6 -18 -11 -13 -17
25 -25 22 -5 26 -4 16 3 -12 9 -13 15 -3 36 6 14 16 26 20 26 5 0 7 10 5 23
-3 17 -24 32 -81 60 -85 41 -81 40 -102 28z"/>
<path d="M1900 3231 c15 -6 19 -9 9 -10 -9 -1 -30 -8 -45 -16 -16 -8 -36 -15
-44 -14 -8 0 1 6 19 13 21 8 30 15 23 20 -24 14 -140 -65 -142 -97 0 -5 28 -7
63 -6 34 1 97 -2 139 -6 l77 -8 13 29 c6 16 13 30 14 32 1 1 13 -3 28 -9 26
-12 35 -29 16 -29 -5 0 -10 -4 -10 -10 0 -5 15 -10 34 -10 l33 0 -11 34 c-13
42 -54 68 -121 77 -27 4 -66 9 -85 13 -28 4 -30 4 -10 -3z m-20 -77 c0 -8 -4
-12 -10 -9 -5 3 -10 10 -10 16 0 5 5 9 10 9 6 0 10 -7 10 -16z"/>
<path d="M2575 3165 c-35 -12 -85 -57 -85 -76 0 -10 47 -17 60 -9 8 5 6 10 -7
14 -17 7 -17 8 1 22 30 21 46 17 57 -15 13 -37 27 -40 187 -40 100 0 122 3
122 14 0 8 -5 15 -10 15 -6 0 -20 12 -33 26 -25 30 -75 54 -109 53 -22 0 -22
-1 -3 -9 23 -10 10 -12 -22 -4 -13 4 -21 10 -18 13 8 14 -100 11 -140 -4z"/>
<path d="M1975 3040 c-7 -12 2 -12 30 0 19 8 19 9 -2 9 -12 1 -25 -3 -28 -9z"/>
<path d="M1481 2834 c0 -11 3 -14 6 -6 3 7 2 16 -1 19 -3 4 -6 -2 -5 -13z"/>
<path d="M1407 2779 c7 -7 15 -10 18 -7 3 3 -2 9 -12 12 -14 6 -15 5 -6 -5z"/>
<path d="M1465 2740 c3 -5 8 -10 11 -10 2 0 4 5 4 10 0 6 -5 10 -11 10 -5 0
-7 -4 -4 -10z"/>
<path d="M2172 2694 c-20 -14 -33 -42 -13 -30 4 3 32 6 61 7 l53 2 -23 19
c-27 22 -49 23 -78 2z"/>
<path d="M2386 2691 c-16 -17 -14 -18 36 -24 62 -8 71 -2 39 24 -29 24 -53 24
-75 0z"/>
<path d="M2777 2591 c27 -22 45 -65 37 -86 -4 -8 -1 -15 4 -15 17 0 24 38 11
62 -15 28 -48 58 -63 58 -6 -1 -1 -9 11 -19z"/>
<path d="M2670 2460 c-30 -11 -67 -19 -82 -19 -23 -1 -28 -6 -28 -25 0 -14 -7
-32 -16 -41 -9 -9 -15 -18 -12 -20 11 -11 81 16 118 46 26 21 51 33 64 31 25
-3 51 21 41 38 -8 13 -18 12 -85 -10z"/>
<path d="M2296 2442 c-4 -4 -89 -7 -189 -8 -160 0 -182 -3 -185 -17 -2 -10 8
-21 30 -30 18 -8 46 -29 62 -46 17 -17 35 -31 42 -31 7 0 14 -6 17 -12 3 -9
11 -6 26 9 25 26 28 45 5 36 -10 -4 -22 0 -28 8 -6 9 -19 18 -28 22 -20 7 -24
37 -5 38 115 7 257 7 262 -1 4 -6 16 -5 33 1 14 6 40 9 57 8 29 -2 85 15 85
26 0 7 -130 -4 -143 -12 -4 -2 -14 0 -21 6 -7 6 -16 7 -20 3z"/>
<path d="M2490 2434 c0 -12 6 -15 23 -10 12 3 26 6 30 6 5 0 5 5 2 10 -10 17
-55 12 -55 -6z"/>
<path d="M2500 2349 c0 -5 5 -7 10 -4 6 3 10 8 10 11 0 2 -4 4 -10 4 -5 0 -10
-5 -10 -11z"/>
<path d="M2220 1842 c63 -28 130 -32 178 -11 23 10 42 20 42 22 0 2 -57 4
-127 4 -123 0 -127 0 -93 -15z"/>
<path d="M1720 1793 c0 -13 5 -23 10 -23 13 0 13 11 0 30 -8 12 -10 11 -10 -7z"/>
<path d="M2415 1340 c-11 -4 -64 -14 -119 -20 -96 -13 -100 -14 -135 -52 -40
-45 -120 -175 -120 -198 0 -8 26 -41 59 -74 82 -81 87 -99 55 -227 -29 -117
-73 -534 -74 -706 l-1 -63 275 0 275 0 1 213 c2 418 -4 486 -47 569 -35 68
-12 211 47 284 16 20 29 44 29 52 0 35 -181 233 -212 231 -7 0 -22 -4 -33 -9z"/>
</g>
</svg>
